HIERARCHY
ROOT Pelvis
{
	OFFSET 0.000000 0.000000 0.000000
	CHANNELS 6 Xposition Yposition Zposition Xrotation Yrotation Zrotation
	JOINT LeftUpLeg_virtual
	{
		OFFSET 0.000000 0.000000 0.000000
		CHANNELS 3 Xrotation Yrotation Zrotation
		JOINT LeftUpLeg
		{
			OFFSET 18.735201 -5.666702 -4.541200
			CHANNELS 3 Xrotation Yrotation Zrotation
			JOINT LeftLeg
			{
				OFFSET -0.021200 -31.938179 0.493100
				CHANNELS 3 Xrotation Yrotation Zrotation
				JOINT LeftFoot
				{
					OFFSET 0.021200 -31.938179 -4.336299
					CHANNELS 3 Xrotation Yrotation Zrotation
					JOINT LeftToeBase
					{
						OFFSET 0.943001 -26.722000 15.023500
						CHANNELS 3 Xrotation Yrotation Zrotation
						End Site
						{
							OFFSET 0 0 0
						}
					}
				}
			}
		}
	}
	JOINT RightUpLeg_virtual
	{
		OFFSET 0.000000 0.000000 0.000000
		CHANNELS 3 Xrotation Yrotation Zrotation
		JOINT RightUpLeg
		{
			OFFSET -18.735201 -5.666702 -4.541200
			CHANNELS 3 Xrotation Yrotation Zrotation
			JOINT RightLeg
			{
				OFFSET 0.018946 -31.938133 0.493100
				CHANNELS 3 Xrotation Yrotation Zrotation
				JOINT RightFoot
				{
					OFFSET -0.018946 -31.938126 -4.336299
					CHANNELS 3 Xrotation Yrotation Zrotation
					JOINT RightToeBase
					{
						OFFSET -0.943001 -26.722004 15.023500
						CHANNELS 3 Xrotation Yrotation Zrotation
						End Site
						{
							OFFSET 0 0 0
						}
					}
				}
			}
		}
	}
	JOINT Hips_virtual
	{
		OFFSET 0.000000 0.000000 0.000000
		CHANNELS 3 Xrotation Yrotation Zrotation
		JOINT Hips
		{
			OFFSET -0.000000 -0.000000 -0.000000
			CHANNELS 3 Xrotation Yrotation Zrotation
			JOINT Spine
			{
				OFFSET 0.000000 10.199997 -0.299500
				CHANNELS 3 Xrotation Yrotation Zrotation
				JOINT Spine1
				{
					OFFSET 0.000000 11.900002 -1.516600
					CHANNELS 3 Xrotation Yrotation Zrotation
					JOINT Spine2
					{
						OFFSET 0.000000 13.600006 -2.842500
						CHANNELS 3 Xrotation Yrotation Zrotation
						JOINT Neck_virtual
						{
							OFFSET 0.000000 0.000000 0.000000
							CHANNELS 3 Xrotation Yrotation Zrotation
							JOINT Neck
							{
								OFFSET 0.000000 9.624100 -2.890100
								CHANNELS 3 Xrotation Yrotation Zrotation
								JOINT Head
								{
									OFFSET 0.000000 14.068802 -1.351900
									CHANNELS 3 Xrotation Yrotation Zrotation
									End Site
									{
										OFFSET 0 0 0
									}
								}
							}
						}
						JOINT LeftShoulder_virtual
						{
							OFFSET 0.000000 0.000000 0.000000
							CHANNELS 3 Xrotation Yrotation Zrotation
							JOINT LeftShoulder
							{
								OFFSET 15.263000 10.923401 -0.547700
								CHANNELS 3 Xrotation Yrotation Zrotation
								JOINT LeftArm
								{
									OFFSET 25.438599 -2.830597 -13.032500
									CHANNELS 3 Xrotation Yrotation Zrotation
									JOINT LeftForeArm
									{
										OFFSET 29.960503 0.000000 0.000000
										CHANNELS 3 Xrotation Yrotation Zrotation
										JOINT LeftHand
										{
											OFFSET 27.849251 0.000000 0.000000
											CHANNELS 3 Xrotation Yrotation Zrotation
											End Site
											{
												OFFSET 0 0 0
											}
										}
									}
								}
							}
						}
						JOINT RightShoulder_virtual
						{
							OFFSET 0.000000 0.000000 0.000000
							CHANNELS 3 Xrotation Yrotation Zrotation
							JOINT RightShoulder
							{
								OFFSET -15.263000 10.923401 -0.547700
								CHANNELS 3 Xrotation Yrotation Zrotation
								JOINT RightArm
								{
									OFFSET -25.438599 -2.830597 -13.032500
									CHANNELS 3 Xrotation Yrotation Zrotation
									JOINT RightForeArm
									{
										OFFSET -29.960503 0.000000 0.000000
										CHANNELS 3 Xrotation Yrotation Zrotation
										JOINT RightHand
										{
											OFFSET -27.849251 0.000000 0.000000
											CHANNELS 3 Xrotation Yrotation Zrotation
											End Site
											{
												OFFSET 0 0 0
											}
										}
									}
								}
							}
						}
					}
				}
			}
		}
	}
}
MOTION
Frames: 5
Frame Time: 0.03333333
-0.194527 204.456467 2.106436 0.000000 0.000000 0.000000 9.334927 -8.513694 -2.340633 -27.176308 9.963685 12.490381 33.604582 -2.825476 0.495116 -13.693106 -3.052264 -5.981175 0.000000 0.000000 0.000000 5.330718 -1.215170 4.840353 -22.647785 -6.235438 -9.479697 23.365734 2.630447 -0.287218 -24.529187 -2.153337 11.810345 0.000000 0.000000 0.000000 -1.271579 1.135481 0.803879 -5.616083 9.639046 2.889075 11.739298 -0.404459 3.549646 5.520050 -0.416483 1.605711 0.000000 0.000000 0.000000 6.035656 -0.456643 0.146075 0.977614 0.157792 -0.265411 0.000000 0.000000 0.000000 5.935945 1.401529 0.661666 2.542241 2.378934 -6.056875 -3.719564 -5.970620 -53.161623 1.340795 -38.406441 -4.846211 0.000000 0.000000 0.000000 7.453742 -1.419063 2.454980 3.968321 2.494210 13.143770 -4.542938 4.802145 50.693920 0.014665 50.079541 3.540036 0.000000 0.000000 0.000000 
0.808596 203.841125 2.644154 0.000000 0.000000 0.000000 9.839098 -7.585418 -2.867126 -27.168334 10.554936 12.289878 33.082984 -3.576155 0.077396 -14.668950 -3.491904 -7.155529 0.000000 0.000000 0.000000 5.159046 -1.585236 5.136322 -22.912658 -6.402128 -9.186241 23.459695 3.116207 -1.115843 -24.703449 -1.244844 10.711806 0.000000 0.000000 0.000000 -2.419475 0.788767 0.175935 -4.535213 10.502784 2.947413 11.447073 -0.375239 3.744451 5.334305 -0.146620 2.120823 0.000000 0.000000 0.000000 6.113480 -0.565063 0.047165 1.133524 0.231799 -0.227176 0.000000 0.000000 0.000000 5.373732 1.465862 0.769243 3.072682 3.694824 -6.703444 -2.235003 -6.156637 -55.154607 2.897973 -38.379663 -4.871728 0.000000 0.000000 0.000000 7.221823 -1.472477 2.291306 4.219599 2.138889 12.774289 -4.313688 4.971266 50.029271 -0.390290 52.242102 3.741205 0.000000 0.000000 0.000000 
2.268795 203.573273 3.782572 0.000000 0.000000 0.000000 9.791501 -4.168874 -2.136518 -27.570839 11.120342 13.695503 32.583984 -3.726056 0.184957 -15.442530 -3.585898 -7.122595 0.000000 0.000000 0.000000 5.852932 -1.468372 5.315751 -21.957195 -6.492067 -9.013928 24.944046 3.221775 -0.931252 -23.876883 -1.200244 11.120556 0.000000 0.000000 0.000000 -1.309107 0.831604 0.862773 -6.585534 11.011906 2.275008 12.504331 -0.796188 3.218744 4.879056 -0.362356 2.409513 0.000000 0.000000 0.000000 6.778877 -0.686358 -0.097165 1.352741 0.308905 -0.339633 0.000000 0.000000 0.000000 5.001818 1.927210 0.999690 2.766560 4.308371 -6.586415 -4.547857 -7.070308 -53.447224 2.881780 -39.408282 -3.860256 0.000000 0.000000 0.000000 7.542825 -1.394046 2.054252 4.790049 1.559963 11.873273 -3.456239 4.332520 50.206593 -0.660145 52.584636 3.619076 0.000000 0.000000 0.000000 
1.853640 204.060547 5.516708 0.000000 0.000000 0.000000 9.397272 -2.600225 -2.267272 -28.187311 11.440596 13.869804 32.453757 -3.515314 0.353141 -15.445710 -3.460429 -6.776085 0.000000 0.000000 0.000000 6.091623 1.512536 5.027468 -21.172931 -5.651091 -8.867717 26.142764 2.800168 -1.013381 -22.928667 -1.441946 10.791564 0.000000 0.000000 0.000000 -2.175263 1.374817 0.338160 -4.903811 9.590758 1.812735 11.531945 -0.868601 3.675539 5.046169 -0.018794 2.068224 0.000000 0.000000 0.000000 6.916011 -0.607708 0.018375 1.389639 0.360311 -0.269891 0.000000 0.000000 0.000000 5.540401 2.017163 0.885891 2.467181 5.726539 -6.317526 -4.402021 -7.679662 -52.933724 2.782566 -39.639396 -3.685491 0.000000 0.000000 0.000000 8.093756 -1.239500 1.978081 4.643118 1.824279 12.498903 -1.596670 4.323247 47.941357 0.704873 51.866684 2.211382 0.000000 0.000000 0.000000 
2.078810 204.170441 4.665916 0.000000 0.000000 0.000000 8.990458 -2.552980 -2.243392 -28.628434 11.344127 13.904710 32.926873 -2.963907 0.563111 -15.066171 -3.028614 -6.160831 0.000000 0.000000 0.000000 8.392568 3.138733 3.745182 -17.656777 -5.288117 -9.844823 25.697675 3.049183 -0.626081 -23.440477 -1.486989 11.473265 0.000000 0.000000 0.000000 -0.767256 0.729359 0.477210 -6.268039 4.136023 4.014277 12.517201 -1.081470 3.220890 4.583636 -0.300037 2.356407 0.000000 0.000000 0.000000 6.635139 -0.714658 0.010466 0.987306 0.484085 -0.255037 0.000000 0.000000 0.000000 5.839321 1.589165 0.811742 2.385803 5.891069 -7.440337 -5.050573 -9.606355 -53.647789 2.442077 -42.437830 -4.386585 0.000000 0.000000 0.000000 8.111853 -1.287325 2.017266 4.790183 2.636529 11.588336 -0.440809 1.963554 46.020230 0.366741 51.778551 1.903405 0.000000 0.000000 0.000000 
